<svg viewBox="0 0 163 90" xmlns="http://www.w3.org/2000/svg" fill-rule="evenodd" clip-rule="evenodd" stroke-linejoin="round" stroke-miterlimit="1.414"><path d="M60 35.2v10.6s-.5 6.8 6.9 6.8 7.6-5.3 7.6-6.6V35.1h-3.7V46s.4 3.5-3.5 3.5-3.6-3.5-3.6-3.5V35.1H60v.1zm0 19.2V65s-.5 6.8 6.9 6.8 7.6-5.3 7.6-6.6V54.3h-3.7v10.9s.4 3.5-3.5 3.5-3.6-3.5-3.6-3.5V54.3l-3.7.1zm16.2-19.2h3.4v17.1h-3.4V35.2zm12.6 8.3H92s.1-3.9-5.5-3.9-5.4 3.5-5.4 4c.2 1.7.4 2.5 4.9 3.5 4.6.8 2.9 3.3.9 3.3s-2.7-.8-2.9-2.1h-3.2s-.3 4.3 5.8 4.3c6 0 5.6-3.9 5.6-4.4 0-.5.2-2.8-5.5-3.6-3.4-.6-2.4-2.3-1.5-2.6 1.2-.3 3.6-.4 3.6 1.5zm45.8 19.3h3.2s.1-3.9-5.5-3.9-5.4 3.5-5.4 4c.2 1.7.4 2.5 4.9 3.5 4.6.8 2.9 3.3.9 3.3s-2.7-.8-2.9-2.1h-3.2s-.3 4.3 5.8 4.3 5.6-3.9 5.6-4.4c0-.5.2-2.8-5.5-3.6-3.4-.6-2.4-2.3-1.5-2.6 1.2-.3 3.6-.4 3.6 1.5zM93.5 36.2h3.4v3.7h2.5v2.3h-2.5v6.2c.1.5-.3 1.6 2.5 1.2v2.6c-1 .1-2.1.1-3 .1-1.1-.1-2.8-.5-2.9-2.6V36.2zm50.8 19.2h3.4v3.7h2.5v2.3h-2.5v6.2c.1.5-.3 1.6 2.5 1.2v2.6c-1 .1-2.1.1-3 .1-1.1-.1-2.8-.5-2.9-2.6V55.4zm-38.5-15.9c-4.4 0-6.2 3.9-6.2 6.5s1.3 6.5 6.3 6.5 5.8-4.1 5.8-4.1h-3c-.5 1.1-1.6 1.6-2.9 1.6-1.3 0-2.9-.8-2.9-3.1h8.9c.3-3.6-1.4-7.4-6-7.4zm-2.8 5.2c.2-1.7 1.2-2.6 2.8-2.6 1.6 0 2.4.8 2.7 2.6H103zm8.3 14.1c-4.4 0-6.2 3.9-6.2 6.5s1.3 6.5 6.3 6.5 5.8-4.1 5.8-4.1h-3c-.5 1.1-1.6 1.6-2.9 1.6-1.3 0-2.9-.8-2.9-3.1h8.9c.4-3.6-1.4-7.4-6-7.4zm-2.8 5.2c.2-1.7 1.2-2.6 2.8-2.6 1.6 0 2.4.8 2.7 2.6h-5.5zm4.5-24.1h3.2v2.3c.8-2 3.1-3 4.7-2.5v3.1s-1.6-.3-2.6.1-2 1.3-2 3.8v5.6H113V39.9zm5.3 19.2h3.2v2.3c.8-2 3.1-3 4.7-2.5V62s-1.6-.3-2.6.1-2 1.3-2 3.8v5.6h-3.4V59.1h.1zm-42.1 0h3.2v1.7h.1c.1-.2.7-1.3 2.3-1.8 1.4-.4 3.8-.3 4.9 1.1.8 1.1 1 2.6 1 3.9v7.5h-3.4v-7s0-1.6-.5-2.3c-.3-.4-.8-.7-1.6-.7-1 0-1.8.4-2.1 1-.5.9-.5 2.5-.5 2.5v6.5h-3.4V59.1zm13.1 0h3.4v12.3h-3.4V59.1zm0-4.7h3.4v2.8h-3.4v-2.8zm50 4.7h3.4v12.3h-3.4V59.1zm0-4.7h3.4v2.8h-3.4v-2.8zm-45.7 4.7h3.6l2.6 8.5 2.6-8.5h3.4l-4.2 12.4h-3.8m52.6-12.4h3.6l2.8 8.5 2.7-8.5h3.5l-5.3 14.2c-.8 1.9-2 2.5-4.2 2.5 0 0-1.3 0-2-.1v-2.8l1 .1c.4 0 1.6.2 2-.6.5-.8.3-1.3-.1-2.3l-4-11z" fill="#fff" fill-rule="nonzero"/><path d="M59.9 0h-7.5s8 .9 13.2 11.3h7.5C67.9.9 59.9 0 59.9 0zm13.2 11.3C75 6.9 76.5 1.5 84.2 0h-9.1c-1.9.3-3.6 1.1-4.8 1.9-.2.1-.4.3-.6.4 0 0 3.8 3.2 3.4 9zm-41.6 6.2v53.8c0 4.3 1.3 7.8 3.7 10.1 2.9 2.5 8.8 4.2 14.7 4.2 3.9 0 7.3-.5 10.2-1.6 2.7-.9 4.9-2.3 6.6-4 0 0 .1-.1.2-.1v.2c-.7.9-2.4 2.9-6.6 5.2-5.7 3.2-11.4 4.6-19.3 4.6-13.7 0-26.3-4.8-32.1-12.3-2.3-3-3.3-5.8-3.3-11.6V8.1C5.6 4.4 3.3 1.3.1-.1h17.2C21.6 0 31.5 4 31.5 17.5z" fill="#B4A168" fill-rule="nonzero"/></svg>