<?xml version="1.0" standalone="no"?><!DOCTYPE svg PUBLIC "-//W3C//DTD SVG 1.1//EN" "http://www.w3.org/Graphics/SVG/1.1/DTD/svg11.dtd"><svg width="100%" height="100%" viewBox="0 0 163 90" version="1.1" xmlns="http://www.w3.org/2000/svg" xmlns:xlink="http://www.w3.org/1999/xlink" xml:space="preserve" style="fill-rule:evenodd;clip-rule:evenodd;stroke-linejoin:round;stroke-miterlimit:1.41421;"><path d="M60,35.2l0,10.6c0,0 -0.5,6.8 6.9,6.8c7.4,0 7.6,-5.3 7.6,-6.6l0,-10.9l-3.7,0l0,10.9c0,0 0.4,3.5 -3.5,3.5c-3.9,0 -3.6,-3.5 -3.6,-3.5l0,-10.9l-3.7,0l0,0.1ZM60,54.4l0,10.6c0,0 -0.5,6.8 6.9,6.8c7.4,0 7.6,-5.3 7.6,-6.6l0,-10.9l-3.7,0l0,10.9c0,0 0.4,3.5 -3.5,3.5c-3.9,0 -3.6,-3.5 -3.6,-3.5l0,-10.9l-3.7,0.1l-2.84217e-14,-7.10543e-15ZM76.2,35.2l3.4,0l0,17.1l-3.4,0l0,-17.1ZM88.8,43.5l3.2,0c0,0 0.1,-3.9 -5.5,-3.9c-5.6,0 -5.4,3.5 -5.4,4c0.2,1.7 0.4,2.5 4.9,3.5c4.6,0.8 2.9,3.3 0.9,3.3c-2,0 -2.7,-0.8 -2.9,-2.1l-3.2,0c0,0 -0.3,4.3 5.8,4.3c6,0 5.6,-3.9 5.6,-4.4c0,-0.5 0.2,-2.8 -5.5,-3.6c-3.4,-0.6 -2.4,-2.3 -1.5,-2.6c1.2,-0.3 3.6,-0.4 3.6,1.5l-5.68434e-14,7.10543e-15ZM134.6,62.8l3.2,0c0,0 0.1,-3.9 -5.5,-3.9c-5.6,0 -5.4,3.5 -5.4,4c0.2,1.7 0.4,2.5 4.9,3.5c4.6,0.8 2.9,3.3 0.9,3.3c-2,0 -2.7,-0.8 -2.9,-2.1l-3.2,0c0,0 -0.3,4.3 5.8,4.3c6.1,0 5.6,-3.9 5.6,-4.4c0,-0.5 0.2,-2.8 -5.5,-3.6c-3.4,-0.6 -2.4,-2.3 -1.5,-2.6c1.2,-0.3 3.6,-0.4 3.6,1.5l-5.68434e-14,0ZM93.5,36.2l3.4,0l0,3.7l2.5,0l0,2.3l-2.5,0l0,6.2c0.1,0.5 -0.3,1.6 2.5,1.2l0,2.6c-1,0.1 -2.1,0.1 -3,0.1c-1.1,-0.1 -2.8,-0.5 -2.9,-2.6l0,-13.5l0,-7.10543e-15ZM144.3,55.4l3.4,0l0,3.7l2.5,0l0,2.3l-2.5,0l0,6.2c0.1,0.5 -0.3,1.6 2.5,1.2l0,2.6c-1,0.1 -2.1,0.1 -3,0.1c-1.1,-0.1 -2.8,-0.5 -2.9,-2.6l0,-13.5ZM105.8,39.5c-4.4,0 -6.2,3.9 -6.2,6.5c0,2.6 1.3,6.5 6.3,6.5c5,0 5.8,-4.1 5.8,-4.1l-3,0c-0.5,1.1 -1.6,1.6 -2.9,1.6c-1.3,0 -2.9,-0.8 -2.9,-3.1l8.9,0c0.3,-3.6 -1.4,-7.4 -6,-7.4l-5.68434e-14,0ZM103,44.7c0.2,-1.7 1.2,-2.6 2.8,-2.6c1.6,0 2.4,0.8 2.7,2.6l-5.5,0ZM111.3,58.8c-4.4,0 -6.2,3.9 -6.2,6.5c0,2.6 1.3,6.5 6.3,6.5c5,0 5.8,-4.1 5.8,-4.1l-3,0c-0.5,1.1 -1.6,1.6 -2.9,1.6c-1.3,0 -2.9,-0.8 -2.9,-3.1l8.9,0c0.4,-3.6 -1.4,-7.4 -6,-7.4l-5.68434e-14,0ZM108.5,64c0.2,-1.7 1.2,-2.6 2.8,-2.6c1.6,0 2.4,0.8 2.7,2.6l-5.5,0ZM113,39.9l3.2,0l0,2.3c0.8,-2 3.1,-3 4.7,-2.5l0,3.1c0,0 -1.6,-0.3 -2.6,0.1c-1,0.4 -2,1.3 -2,3.8l0,5.6l-3.3,0l0,-12.4ZM118.3,59.1l3.2,0l0,2.3c0.8,-2 3.1,-3 4.7,-2.5l0,3.1c0,0 -1.6,-0.3 -2.6,0.1c-1,0.4 -2,1.3 -2,3.8l0,5.6l-3.4,0l0,-12.4l0.1,0ZM76.2,59.1l3.2,0l0,1.7l0.1,0c0.1,-0.2 0.7,-1.3 2.3,-1.8c1.4,-0.4 3.8,-0.3 4.9,1.1c0.8,1.1 1,2.6 1,3.9l0,7.5l-3.4,0l0,-7c0,0 0,-1.6 -0.5,-2.3c-0.3,-0.4 -0.8,-0.7 -1.6,-0.7c-1,0 -1.8,0.4 -2.1,1c-0.5,0.9 -0.5,2.5 -0.5,2.5l0,6.5l-3.4,0l0,-12.4l0,-7.10543e-15ZM89.3,59.1l3.4,0l0,12.3l-3.4,0l0,-12.3ZM89.3,54.4l3.4,0l0,2.8l-3.4,0l0,-2.8ZM139.3,59.1l3.4,0l0,12.3l-3.4,0l0,-12.3ZM139.3,54.4l3.4,0l0,2.8l-3.4,0l0,-2.8ZM93.6,59.1l3.6,0l2.6,8.5l2.6,-8.5l3.4,0l-4.2,12.4l-3.8,0M150.4,59.1l3.6,0l2.8,8.5l2.7,-8.5l3.5,0l-5.3,14.2c-0.8,1.9 -2,2.5 -4.2,2.5c0,0 -1.3,0 -2,-0.1l0,-2.8l1,0.1c0.4,0 1.6,0.2 2,-0.6c0.5,-0.8 0.3,-1.3 -0.1,-2.3l-4,-11Z" style="fill:#102b52;fill-rule:nonzero;"/><path d="M59.9,0l-7.5,0c0,0 8,0.9 13.2,11.3l7.5,0c-5.2,-10.4 -13.2,-11.3 -13.2,-11.3l-2.84217e-14,0ZM73.1,11.3c1.9,-4.4 3.4,-9.8 11.1,-11.3l-9.1,0c-1.9,0.3 -3.6,1.1 -4.8,1.9c-0.2,0.1 -0.4,0.3 -0.6,0.4c0,0 3.8,3.2 3.4,9l0,-1.42109e-14ZM31.5,17.5l0,53.8c0,4.3 1.3,7.8 3.7,10.1c2.9,2.5 8.8,4.2 14.7,4.2c3.9,0 7.3,-0.5 10.2,-1.6c2.7,-0.9 4.9,-2.3 6.6,-4c0,0 0.1,-0.1 0.2,-0.1l0,0.2c-0.7,0.9 -2.4,2.9 -6.6,5.2c-5.7,3.2 -11.4,4.6 -19.3,4.6c-13.7,0 -26.3,-4.8 -32.1,-12.3c-2.3,-3 -3.3,-5.8 -3.3,-11.6l0,-57.9c0,-3.7 -2.3,-6.8 -5.5,-8.2l17.2,0c4.3,0.1 14.2,4.1 14.2,17.6l8.52651e-14,0Z" style="fill:#b4a168;fill-rule:nonzero;"/></svg>