<?xml version="1.0" standalone="no"?>
<!DOCTYPE svg PUBLIC "-//W3C//DTD SVG 1.1//EN" "http://www.w3.org/Graphics/SVG/1.1/DTD/svg11.dtd">
<svg width="100%" height="100%" viewBox="0 0 163 90" version="1.1" xmlns="http://www.w3.org/2000/svg" xmlns:xlink="http://www.w3.org/1999/xlink" xml:space="preserve" style="fill-rule:evenodd;clip-rule:evenodd;stroke-linejoin:round;stroke-miterlimit:1.41421;">
    <path id="ulster" d="M60,35.2L60,45.8C60,45.8 59.5,52.6 66.9,52.6C74.3,52.6 74.5,47.3 74.5,46L74.5,35.1L70.8,35.1L70.8,46C70.8,46 71.2,49.5 67.3,49.5C63.4,49.5 63.7,46 63.7,46L63.7,35.1L60,35.1L60,35.2ZM60,54.4L60,65C60,65 59.5,71.8 66.9,71.8C74.3,71.8 74.5,66.5 74.5,65.2L74.5,54.3L70.8,54.3L70.8,65.2C70.8,65.2 71.2,68.7 67.3,68.7C63.4,68.7 63.7,65.2 63.7,65.2L63.7,54.3L60,54.4L60,54.4ZM76.2,35.2L79.6,35.2L79.6,52.3L76.2,52.3L76.2,35.2ZM88.8,43.5L92,43.5C92,43.5 92.1,39.6 86.5,39.6C80.9,39.6 81.1,43.1 81.1,43.6C81.3,45.3 81.5,46.1 86,47.1C90.6,47.9 88.9,50.4 86.9,50.4C84.9,50.4 84.2,49.6 84,48.3L80.8,48.3C80.8,48.3 80.5,52.6 86.6,52.6C92.6,52.6 92.2,48.7 92.2,48.2C92.2,47.7 92.4,45.4 86.7,44.6C83.3,44 84.3,42.3 85.2,42C86.4,41.7 88.8,41.6 88.8,43.5L88.8,43.5ZM134.6,62.8L137.8,62.8C137.8,62.8 137.9,58.9 132.3,58.9C126.7,58.9 126.9,62.4 126.9,62.9C127.1,64.6 127.3,65.4 131.8,66.4C136.4,67.2 134.7,69.7 132.7,69.7C130.7,69.7 130,68.9 129.8,67.6L126.6,67.6C126.6,67.6 126.3,71.9 132.4,71.9C138.5,71.9 138,68 138,67.5C138,67 138.2,64.7 132.5,63.9C129.1,63.3 130.1,61.6 131,61.3C132.2,61 134.6,60.9 134.6,62.8L134.6,62.8ZM93.5,36.2L96.9,36.2L96.9,39.9L99.4,39.9L99.4,42.2L96.9,42.2L96.9,48.4C97,48.9 96.6,50 99.4,49.6L99.4,52.2C98.4,52.3 97.3,52.3 96.4,52.3C95.3,52.2 93.6,51.8 93.5,49.7L93.5,36.2L93.5,36.2ZM144.3,55.4L147.7,55.4L147.7,59.1L150.2,59.1L150.2,61.4L147.7,61.4L147.7,67.6C147.8,68.1 147.4,69.2 150.2,68.8L150.2,71.4C149.2,71.5 148.1,71.5 147.2,71.5C146.1,71.4 144.4,71 144.3,68.9L144.3,55.4ZM105.8,39.5C101.4,39.5 99.6,43.4 99.6,46C99.6,48.6 100.9,52.5 105.9,52.5C110.9,52.5 111.7,48.4 111.7,48.4L108.7,48.4C108.2,49.5 107.1,50 105.8,50C104.5,50 102.9,49.2 102.9,46.9L111.8,46.9C112.1,43.3 110.4,39.5 105.8,39.5L105.8,39.5ZM103,44.7C103.2,43 104.2,42.1 105.8,42.1C107.4,42.1 108.2,42.9 108.5,44.7L103,44.7ZM111.3,58.8C106.9,58.8 105.1,62.7 105.1,65.3C105.1,67.9 106.4,71.8 111.4,71.8C116.4,71.8 117.2,67.7 117.2,67.7L114.2,67.7C113.7,68.8 112.6,69.3 111.3,69.3C110,69.3 108.4,68.5 108.4,66.2L117.3,66.2C117.7,62.6 115.9,58.8 111.3,58.8L111.3,58.8ZM108.5,64C108.7,62.3 109.7,61.4 111.3,61.4C112.9,61.4 113.7,62.2 114,64L108.5,64ZM113,39.9L116.2,39.9L116.2,42.2C117,40.2 119.3,39.2 120.9,39.7L120.9,42.8C120.9,42.8 119.3,42.5 118.3,42.9C117.3,43.3 116.3,44.2 116.3,46.7L116.3,52.3L113,52.3L113,39.9ZM118.3,59.1L121.5,59.1L121.5,61.4C122.3,59.4 124.6,58.4 126.2,58.9L126.2,62C126.2,62 124.6,61.7 123.6,62.1C122.6,62.5 121.6,63.4 121.6,65.9L121.6,71.5L118.2,71.5L118.2,59.1L118.3,59.1ZM76.2,59.1L79.4,59.1L79.4,60.8L79.5,60.8C79.6,60.6 80.2,59.5 81.8,59C83.2,58.6 85.6,58.7 86.7,60.1C87.5,61.2 87.7,62.7 87.7,64L87.7,71.5L84.3,71.5L84.3,64.5C84.3,64.5 84.3,62.9 83.8,62.2C83.5,61.8 83,61.5 82.2,61.5C81.2,61.5 80.4,61.9 80.1,62.5C79.6,63.4 79.6,65 79.6,65L79.6,71.5L76.2,71.5L76.2,59.1L76.2,59.1ZM89.3,59.1L92.7,59.1L92.7,71.4L89.3,71.4L89.3,59.1ZM89.3,54.4L92.7,54.4L92.7,57.2L89.3,57.2L89.3,54.4ZM139.3,59.1L142.7,59.1L142.7,71.4L139.3,71.4L139.3,59.1ZM139.3,54.4L142.7,54.4L142.7,57.2L139.3,57.2L139.3,54.4ZM93.6,59.1L97.2,59.1L99.8,67.6L102.4,59.1L105.8,59.1L101.6,71.5L97.8,71.5M150.4,59.1L154,59.1L156.8,67.6L159.5,59.1L163,59.1L157.7,73.3C156.9,75.2 155.7,75.8 153.5,75.8C153.5,75.8 152.2,75.8 151.5,75.7L151.5,72.9L152.5,73C152.9,73 154.1,73.2 154.5,72.4C155,71.6 154.8,71.1 154.4,70.1L150.4,59.1Z" style="fill:white;fill-rule:nonzero;"/>
    <path id="u" d="M59.9,0L52.4,0C52.4,0 60.4,0.9 65.6,11.3L73.1,11.3C67.9,0.9 59.9,0 59.9,0L59.9,0ZM73.1,11.3C75,6.9 76.5,1.5 84.2,0L75.1,0C73.2,0.3 71.5,1.1 70.3,1.9C70.1,2 69.9,2.2 69.7,2.3C69.7,2.3 73.5,5.5 73.1,11.3L73.1,11.3ZM31.5,17.5L31.5,71.3C31.5,75.6 32.8,79.1 35.2,81.4C38.1,83.9 44,85.6 49.9,85.6C53.8,85.6 57.2,85.1 60.1,84C62.8,83.1 65,81.7 66.7,80C66.7,80 66.8,79.9 66.9,79.9L66.9,80.1C66.2,81 64.5,83 60.3,85.3C54.6,88.5 48.9,89.9 41,89.9C27.3,89.9 14.7,85.1 8.9,77.6C6.6,74.6 5.6,71.8 5.6,66L5.6,8.1C5.6,4.4 3.3,1.3 0.1,-0.1L17.3,-0.1C21.6,-1.42109e-14 31.5,4 31.5,17.5L31.5,17.5Z" style="fill:rgb(180,161,104);fill-rule:nonzero;"/>
</svg>
